# xmcd
#
# Track frame offsets:
#        150
#        18776
#        38645
#        67551
#        89949
#        109508
#        138367
#        184449
#        213168
#        237069
#
# Disc length: 3450 seconds
#
# Revision: 0
# Processed by: cddbd v1.5.1PL0 Copyright (c) Steve Scherf et al.
# Submitted via: ExactAudioCopy v0.95a5
#
DISCID=7b0d780a
DTITLE=Various Artist - Storyteller
DYEAR=2001
DGENRE=Jazz
TTITLE0=Con Este Guaguanco
TTITLE1=Sweet Mary (Everyone Has a Choice)
TTITLE2=Wedding in Sarajevo
TTITLE3=Selector (On Tha Otha Side of Midnite)
TTITLE4=Aware
TTITLE5=Confluence
TTITLE6=Synthesis
TTITLE7=Sabe Voce
TTITLE8=Eastern Lady
TTITLE9=Reach Out Your Hand
EXTD=
EXTT0=
EXTT1=
EXTT2=
EXTT3=
EXTT4=
EXTT5=
EXTT6=
EXTT7=
EXTT8=
EXTT9=
PLAYORDER=
